<svg xmlns="http://www.w3.org/2000/svg" height="24" viewBox="0 -960 960 960" width="24"><path d="M90-210.001v-59.998H870v59.998H90.001Zm33.692-240.461-41.23-23.846 36.308-63.846H46.154v-47.692h72.616l-36.308-61.846 41.23-23.846L160-609.691l36.308-61.847 41.23 23.846-36.308 61.846h72.616v47.692H201.23l36.308 63.846-41.23 23.846L160-514.309l-36.308 63.847Zm320 0-41.23-23.846 36.308-63.846h-72.616v-47.692h72.616l-36.308-61.846 41.23-23.846L480-609.691l36.308-61.847 41.23 23.846-36.308 61.846h72.616v47.692H521.23l36.308 63.846-41.23 23.846L480-514.309l-36.308 63.847Zm320 0-41.23-23.846 36.308-63.846h-72.616v-47.692h72.616l-36.308-61.846 41.23-23.846L800-609.691l36.308-61.847 41.23 23.846-36.308 61.846h72.616v47.692H841.23l36.308 63.846-41.23 23.846L800-514.309l-36.308 63.847Z"/></svg>